<?xml version="1.0" encoding="UTF-8"?><svg id="Layer_1" xmlns="http://www.w3.org/2000/svg" viewBox="0 0 111.85 125"><defs><style>.cls-1{fill:#00a6eb;}</style></defs><path class="cls-1" d="M74.81,49.4H23.93c-2.31,0-4.2,1.88-4.2,4.2s1.88,4.2,4.2,4.2h50.88c2.31,0,4.2-1.88,4.2-4.2s-1.88-4.2-4.2-4.2"/><path class="cls-1" d="M23.93,77.55h30.9c2.31,0,4.2-1.88,4.2-4.2s-1.88-4.2-4.2-4.2H23.93c-2.32,0-4.2,1.88-4.2,4.2s1.88,4.2,4.2,4.2"/><path class="cls-1" d="M98.77,19.02c0-10.49-8.53-19.02-19.02-19.02H19.02C8.53,0,0,8.53,0,19.02V105.96c0,10.49,8.53,19.02,19.02,19.02h16.52c2.32,0,4.2-1.88,4.2-4.2s-1.88-4.2-4.2-4.2H19.02c-5.86,0-10.62-4.76-10.62-10.62V19.02c0-5.86,4.76-10.62,10.62-10.62h60.73c5.86,0,10.62,4.76,10.62,10.62v30.38c0,2.32,1.88,4.2,4.2,4.2s4.2-1.88,4.2-4.2V19.02Z"/><path class="cls-1" d="M75.56,111.44l-.05,.05h-.07l-.12,.04-10.02,2.79-.86,.25-.44,.13,.14-.44,.27-.86,2.93-9.64,.02-.11v-.07l.07-.05,.1-.1,18.3-18.25,.35-.35,.17-.17,.17,.17,.35,.35,6.99,6.99,.35,.35,.18,.17-.18,.17-.35,.35-18.2,18.15-.1,.1Zm16.87-32.9l.35-.35,.96-.96c1.09-1.07,2.52-1.65,4.03-1.65s2.96,.59,4.03,1.65c2.21,2.21,2.21,5.82,0,8.03l-.96,.96-.35,.35-.17,.17-.17-.16-.37-.35-7-7-.35-.35-.18-.17,.18-.18Zm-11.76,39.69l27.07-27.02c2.65-2.65,4.11-6.19,4.11-9.95s-1.46-7.3-4.11-9.95c-2.64-2.66-6.17-4.13-9.95-4.13s-7.32,1.47-9.95,4.12l-27.12,27.1c-.47,.47-.83,1.08-1.05,1.75l-5.9,19.43c-.44,1.47-.06,3.07,1,4.15,.8,.8,1.9,1.26,3.01,1.26,.32,0,.67-.05,1.13-.16l19.92-5.53c.69-.18,1.32-.55,1.84-1.07"/><path class="cls-1" d="M74.81,29.64H23.93c-2.31,0-4.2,1.88-4.2,4.2s1.88,4.2,4.2,4.2h50.88c2.31,0,4.2-1.88,4.2-4.2s-1.88-4.2-4.2-4.2"/></svg>