<?xml version="1.0" encoding="UTF-8"?><svg id="Layer_1" xmlns="http://www.w3.org/2000/svg" viewBox="0 0 516 699.35"><defs><style>.cls-1{fill:none;stroke:#00a6eb;stroke-dasharray:0 0 0 12.83;stroke-linecap:round;stroke-linejoin:round;stroke-width:4px;}</style></defs><path class="cls-1" d="M257.99,2C116.84,2,2,116.84,2,258c0,36.82,7.54,71.97,22.39,104.5,64,140.06,186.72,287.93,222.81,329.91,2.7,3.14,6.65,4.95,10.8,4.95s8.09-1.81,10.8-4.95c36.08-41.97,158.79-189.84,222.82-329.91,14.86-32.52,22.39-67.68,22.39-104.5-.01-141.16-114.86-256-256.01-256Zm0,388.97c-73.32,0-132.98-59.66-132.98-132.98s59.66-132.98,132.98-132.98,132.98,59.66,132.98,132.98c0,73.32-59.65,132.98-132.98,132.98Z"/></svg>