<?xml version="1.0" encoding="UTF-8"?><svg id="Layer_1" xmlns="http://www.w3.org/2000/svg" viewBox="0 0 125 125"><defs><style>.cls-1{fill:#00a6eb;}</style></defs><path class="cls-1" d="M1.64,90.74C.73,90.74,0,91.48,0,92.38v30.98c0,.91,.73,1.64,1.64,1.64h30.98c.91,0,1.64-.74,1.64-1.64v-5.05c0-.91-.74-1.64-1.64-1.64H9.97c-.91,0-1.64-.73-1.64-1.64v-22.64c0-.91-.74-1.64-1.64-1.64H1.64Z"/><path class="cls-1" d="M123.36,125c.91,0,1.64-.73,1.64-1.64v-31.69c0-.49-.39-.9-.87-.92h-5.82c-.91,0-1.64,.73-1.64,1.64v22.64c0,.91-.73,1.64-1.64,1.64h-22.65c-.91,0-1.64,.73-1.64,1.64v5.05c0,.91,.73,1.64,1.64,1.64h30.98Z"/><path class="cls-1" d="M123.36,34.26c.91,0,1.64-.73,1.64-1.64V.92c0-.49-.39-.9-.87-.92h-31.74c-.91,0-1.64,.73-1.64,1.64V6.69c0,.91,.74,1.64,1.64,1.64h22.64c.91,0,1.64,.73,1.64,1.64v22.64c0,.91,.74,1.64,1.64,1.64h5.05Z"/><path class="cls-1" d="M79.63,43.06v-13.64c0-.91,.74-1.64,1.64-1.64h14.31c.91,0,1.64,.73,1.64,1.64v14.31c0,.91-.73,1.64-1.64,1.64h-14.31c-.91,0-1.64-.74-1.64-1.64v-.67Zm24.29,10.65c.91,0,1.64-.73,1.64-1.64V21.09c0-.91-.73-1.64-1.64-1.64h-30.98c-.91,0-1.64,.74-1.64,1.64v31.74c.02,.49,.43,.88,.93,.88h31.69Z"/><path class="cls-1" d="M27.78,43.06v-13.64c0-.91,.73-1.64,1.64-1.64h14.31c.91,0,1.64,.73,1.64,1.64v14.31c0,.91-.74,1.64-1.64,1.64h-14.31c-.91,0-1.64-.74-1.64-1.64v-.67Zm24.29,10.65c.91,0,1.64-.73,1.64-1.64V20.32c-.02-.49-.43-.88-.93-.88H21.09c-.91,0-1.64,.73-1.64,1.64v30.98c0,.91,.73,1.64,1.64,1.64h30.98Z"/><path class="cls-1" d="M27.78,94.91v-13.64c0-.91,.73-1.64,1.64-1.64h14.31c.91,0,1.64,.73,1.64,1.64v14.31c0,.91-.74,1.64-1.64,1.64h-14.31c-.91,0-1.64-.73-1.64-1.64v-.67Zm24.29,10.65c.91,0,1.64-.73,1.64-1.64v-31.74c-.02-.49-.43-.88-.92-.88H21.09c-.91,0-1.64,.74-1.64,1.64v30.98c0,.91,.73,1.64,1.64,1.64h30.98Z"/><path class="cls-1" d="M33.33,8.33c.51,0,.92-.41,.92-.92V.93c0-.51-.41-.92-.92-.92H.92C.41,0,0,.41,0,.93V33.33c0,.51,.41,.93,.93,.93H7.41c.51,0,.93-.41,.93-.93V9.26c0-.51,.42-.93,.93-.93h24.07Z"/><path class="cls-1" d="M98.86,97.22h5.05c.91,0,1.64,.73,1.64,1.64v5.05c0,.91-.73,1.64-1.64,1.64h-5.05c-.91,0-1.64-.74-1.64-1.64v-5.05c0-.91,.73-1.64,1.64-1.64Z"/><path class="cls-1" d="M98.86,71.3h5.05c.91,0,1.64,.73,1.64,1.64v5.05c0,.91-.74,1.64-1.64,1.64h-5.05c-.91,0-1.64-.73-1.64-1.64v-5.05c0-.91,.73-1.64,1.64-1.64Z"/><path class="cls-1" d="M85.9,84.26h5.05c.91,0,1.64,.73,1.64,1.64v5.05c0,.91-.74,1.64-1.64,1.64h-5.05c-.91,0-1.64-.73-1.64-1.64v-5.05c0-.91,.73-1.64,1.64-1.64Z"/><path class="cls-1" d="M72.94,71.3h5.05c.91,0,1.64,.73,1.64,1.64v5.05c0,.91-.74,1.64-1.64,1.64h-5.05c-.91,0-1.64-.73-1.64-1.64v-5.05c0-.91,.73-1.64,1.64-1.64Z"/></svg>