<?xml version="1.0" encoding="UTF-8"?><svg id="Layer_1" xmlns="http://www.w3.org/2000/svg" viewBox="0 0 142.22 125"><defs><style>.cls-1{fill:#00a6eb;}</style></defs><path class="cls-1" d="M133.88,95.83c0,2.3-1.87,4.17-4.17,4.17h-8.33c-2.3,0-4.17,1.87-4.17,4.17v8.88l-18.52-12.35c-.68-.46-1.49-.7-2.31-.7H54.17c-2.3,0-4.17-1.87-4.17-4.17v-20.83h38.05c6.89,0,12.5-5.61,12.5-12.5v-20.83h29.17c2.3,0,4.17,1.87,4.17,4.17v50Zm-90.38-28.46h-.01l-18.5,12.34v-8.88c0-2.3-1.87-4.17-4.17-4.17H12.5c-2.3,0-4.17-1.87-4.17-4.17V12.5c0-2.3,1.87-4.17,4.17-4.17H88.05c2.3,0,4.17,1.87,4.17,4.17V62.5c0,2.3-1.87,4.17-4.17,4.17H45.83c-.81,0-1.64,.25-2.32,.71m86.21-34.04h-29.17V12.5c0-6.89-5.61-12.5-12.5-12.5H12.5C5.61,0,0,5.61,0,12.5V62.5c0,6.89,5.61,12.5,12.5,12.5h4.17v12.5c0,3.34,3.73,5.3,6.48,3.47l18.52-12.35v17.21c0,6.89,5.61,12.5,12.5,12.5h40.96l23.95,15.97c2.75,1.84,6.48-.13,6.48-3.47v-12.5h4.17c6.89,0,12.5-5.61,12.5-12.5V45.83c0-6.89-5.61-12.5-12.5-12.5"/><path class="cls-1" d="M54.17,41.67H20.83c-2.3,0-4.17,1.87-4.17,4.17s1.87,4.17,4.17,4.17H54.17c2.3,0,4.17-1.86,4.17-4.17s-1.87-4.17-4.17-4.17"/><path class="cls-1" d="M79.72,25H20.83c-2.3,0-4.17,1.87-4.17,4.17s1.87,4.17,4.17,4.17h58.89c2.3,0,4.17-1.86,4.17-4.17s-1.87-4.17-4.17-4.17"/></svg>