<svg width="512" height="512" viewBox="0 0 512 512" fill="none" xmlns="http://www.w3.org/2000/svg">
<path fill-rule="evenodd" clip-rule="evenodd" d="M418.02 352.32C311.949 486.142 57.1894 386.964 71.9802 215.878C72.1715 357.01 260.994 458.574 375.432 384.34C514.196 282.607 401.762 120.216 263.709 97.9471C380.456 99.6308 505.485 239.688 418.02 352.32ZM452.498 273.233C456.477 227.384 435.097 188.837 407.611 155.476C471.458 210.521 477.285 321.98 407.321 373.361C435.181 336.11 443.078 337.616 452.498 273.233ZM179.772 423.655C208.088 434.46 242.854 441.688 272.651 443.835C244.823 446.413 203.268 437.558 179.772 423.655ZM222.433 387.054C254.334 395.106 310.978 401.233 347.535 389.345C311.875 406.121 257.093 402.067 222.433 387.054ZM55.0426 374.231C76.9286 396.693 109.208 418.173 135.971 434.14C110.267 424.916 72.2224 397.484 55.0426 374.231ZM420.401 381.742C440.788 359.65 455.264 332.631 463.934 304.014C462.268 332.66 440.811 363.764 420.401 381.742ZM390.6 413.127C431.504 385.205 467.069 340.9 471.714 289.743C471.187 339.438 436.861 392.267 390.6 413.127ZM413.925 337.94C425.751 313.2 432.183 286.81 430.271 258.952C436.947 283.3 428.595 318.783 413.925 337.94ZM292.852 380.145C256.323 386.064 211.815 373.975 180.018 353.273C211.239 368.223 247.089 375.406 280.868 373.703C289.84 372.197 306.145 370.583 305.396 373.754C301.13 378.583 299.843 376.471 294.827 377.73C349.515 376.959 400.012 332.087 411.318 278.674C403.256 341.723 349.127 377.993 292.85 380.145H292.852ZM58.3655 230.565C70.7567 443.455 391.988 511.215 459.179 302.372C400.76 513.897 47.7701 448.116 58.3655 230.565ZM175.649 183.053C245.174 112.547 408.347 204.864 339.724 293.283C289.655 384.971 79.186 288.676 175.649 183.053ZM142.497 265.294C135.888 254.591 138.346 230.977 143.922 218.952C141.444 240.392 139.72 241.159 142.497 265.294ZM141.661 311.654C121.025 287.592 112.638 245.259 123.541 214.859C118.554 246.395 124.073 282.737 141.661 311.654ZM405.47 203.915C447.39 274.155 419.195 371.644 331.94 382.866C401.25 357.691 439.252 271.546 405.47 203.915ZM25.5067 321.751C9.61351 287.249 12.0394 232.393 27.6517 198.379C10.2086 278.672 26.0754 315.713 25.5067 321.749V321.751ZM82.9162 259.847C74.0884 237.14 73.7303 215.003 80.5078 194.681C77.2042 208.119 78.2346 241.638 82.9162 259.847ZM70.5689 268.86C59.754 245.546 60.6457 217.092 71.3044 193.971C66.2629 221.063 65.1816 241.321 70.5689 268.86ZM383.924 194.432C434.426 252.111 397.842 343.745 327.013 362.378C384.056 335.92 419.355 252.671 383.924 194.432ZM99.9784 270.535C91.3244 256.368 81.3275 212.685 94.9563 191.713C87.1905 211.153 90.8347 251.197 99.9784 270.535ZM134.115 328.093C96.7081 298.887 68.8574 234.581 89.3742 186.438C72.4436 238.994 98.0843 291.296 134.115 328.093ZM195.009 440.586C174.917 440.586 122.682 415.675 105.952 399.072C75.5366 369.152 53.6225 323.383 38.4385 261.257C32.8055 224.08 40.1061 195.639 56.6417 167.581C2.08472 281.754 92.813 396.107 195.009 440.584V440.586ZM348.938 308.968C338.209 318.292 322.216 333.403 307.92 337.216C358.661 311.888 382.636 229.281 337.465 185.612C366.539 207.067 386.743 272.055 348.938 308.968ZM374.668 233.702C367.006 195.061 343.221 171.169 309.075 152.88C388.771 181.882 410.909 291.964 329.594 334.893C358.476 312.746 380.831 278.825 374.668 233.702ZM211.095 353.517C212.229 352.711 213.051 351.545 212.64 349.93C216.028 348.192 216.386 350.187 221.108 351.075C295.72 369.108 382.818 332.51 388.586 249.485C395.962 330.877 297.721 376.344 233.397 359.803C115.031 345.972 78.7945 174.851 210.432 141.877C108.034 182.37 113.653 307.438 211.095 353.517ZM88.7247 350.058C31.8681 291.576 28.8138 192.349 89.1548 135.832C39.0072 194.913 46.199 289.264 88.7247 350.058ZM126.801 302.175C52.1497 219.506 122.879 122.945 221.663 124.117C139.071 136.234 89.5708 228.304 126.801 302.175ZM122.937 150.112C140.422 130.21 168.298 117.757 194.384 115.598C180.789 118.886 142.234 129.952 122.937 150.112ZM374.145 95.5149C342.864 81.7459 309.215 73.6127 275.516 67.3094C317.536 68.1776 341.277 73.581 374.145 95.5149ZM89.634 393.903C76.8478 383.738 64.5163 372.045 47.8052 354.262C3.68912 302.175 20.8198 183.781 73.7952 125.524C121.257 73.3274 197.224 48.1 266.941 55.4953C185.003 56.3812 120.453 82.6406 80.2357 124.819C48.4617 155.656 25.6717 191.713 34.3555 257.275C37.7592 300.019 61.1671 352.137 89.6322 393.903H89.634ZM394.462 428.025C358.561 449.804 311.822 461.581 269.641 458.914C400.274 446.494 477.103 370.08 476.508 278.404C479.578 238.776 470.633 196.771 449.594 156.9C515.661 241.085 479.957 371.973 394.462 428.023V428.025ZM308.745 472.696C607.926 423.655 537.172 27.0273 239.59 37.4518C182.111 37.4518 110.311 63.8557 75.3751 103.618C13.9879 167.581 -15.8745 289.206 42.2424 368.438C88.4508 438.775 199.118 485.283 308.743 472.694L308.745 472.696ZM420.095 416.935C417.943 419.992 401.743 430.05 401.743 430.05C455.076 386.853 491.03 325.286 490.998 255.014C493.689 322.043 496.6 356.862 420.095 416.935Z" fill="#159DE0"/>
</svg>
